<mxfile host="app.diagrams.net" agent="Mozilla/5.0 (Windows NT 10.0; Win64; x64) AppleWebKit/537.36 (KHTML, like Gecko) Chrome/131.0.0.0 Safari/537.36" version="24.8.9">
  <diagram name="Page-1" id="tX_kaKsWgVZAXPhEjvsI">
    <mxGraphModel dx="2849" dy="1466" grid="1" gridSize="10" guides="1" tooltips="1" connect="1" arrows="1" fold="1" page="0" pageScale="1" pageWidth="1100" pageHeight="850" math="0" shadow="0">
      <root>
        <mxCell id="0" />
        <mxCell id="1" parent="0" />
        <mxCell id="CmAchbvWxl7XxBxYjPVS-1" value="&lt;font style=&quot;font-size: 24px;&quot;&gt;AWS Account&lt;/font&gt;" style="points=[[0,0],[0.25,0],[0.5,0],[0.75,0],[1,0],[1,0.25],[1,0.5],[1,0.75],[1,1],[0.75,1],[0.5,1],[0.25,1],[0,1],[0,0.75],[0,0.5],[0,0.25]];outlineConnect=0;gradientColor=none;html=1;whiteSpace=wrap;fontSize=12;fontStyle=0;container=1;pointerEvents=0;collapsible=0;recursiveResize=0;shape=mxgraph.aws4.group;grIcon=mxgraph.aws4.group_account;strokeColor=#CD2264;fillColor=none;verticalAlign=top;align=left;spacingLeft=30;fontColor=#CD2264;dashed=0;" parent="1" vertex="1">
          <mxGeometry x="-240" y="-280" width="960" height="1000" as="geometry" />
        </mxCell>
        <mxCell id="CmAchbvWxl7XxBxYjPVS-2" value="&lt;font style=&quot;font-size: 24px;&quot;&gt;VPC&lt;/font&gt;" style="points=[[0,0],[0.25,0],[0.5,0],[0.75,0],[1,0],[1,0.25],[1,0.5],[1,0.75],[1,1],[0.75,1],[0.5,1],[0.25,1],[0,1],[0,0.75],[0,0.5],[0,0.25]];outlineConnect=0;gradientColor=none;html=1;whiteSpace=wrap;fontSize=12;fontStyle=0;container=1;pointerEvents=0;collapsible=0;recursiveResize=0;shape=mxgraph.aws4.group;grIcon=mxgraph.aws4.group_vpc2;strokeColor=#8C4FFF;fillColor=none;verticalAlign=top;align=left;spacingLeft=30;fontColor=#AAB7B8;dashed=0;" parent="CmAchbvWxl7XxBxYjPVS-1" vertex="1">
          <mxGeometry x="80" y="80" width="800" height="840" as="geometry" />
        </mxCell>
        <mxCell id="CmAchbvWxl7XxBxYjPVS-3" value="&lt;font style=&quot;font-size: 24px;&quot;&gt;Primary&lt;/font&gt;" style="points=[[0,0],[0.25,0],[0.5,0],[0.75,0],[1,0],[1,0.25],[1,0.5],[1,0.75],[1,1],[0.75,1],[0.5,1],[0.25,1],[0,1],[0,0.75],[0,0.5],[0,0.25]];outlineConnect=0;gradientColor=none;html=1;whiteSpace=wrap;fontSize=12;fontStyle=0;container=1;pointerEvents=0;collapsible=0;recursiveResize=0;shape=mxgraph.aws4.group;grIcon=mxgraph.aws4.group_region;strokeColor=#00A4A6;fillColor=none;verticalAlign=top;align=left;spacingLeft=30;fontColor=#147EBA;dashed=1;" parent="CmAchbvWxl7XxBxYjPVS-2" vertex="1">
          <mxGeometry x="80" y="80" width="640" height="680" as="geometry" />
        </mxCell>
        <mxCell id="rELkXA1sIGeEUFRLZHnI-9" value="" style="rounded=0;whiteSpace=wrap;html=1;fillColor=#f5f5f5;strokeColor=#666666;fontColor=#333333;" vertex="1" parent="CmAchbvWxl7XxBxYjPVS-3">
          <mxGeometry x="120" y="400" width="400" height="210" as="geometry" />
        </mxCell>
        <mxCell id="rELkXA1sIGeEUFRLZHnI-8" value="" style="edgeStyle=orthogonalEdgeStyle;rounded=0;orthogonalLoop=1;jettySize=auto;html=1;" edge="1" parent="CmAchbvWxl7XxBxYjPVS-3" source="rELkXA1sIGeEUFRLZHnI-1" target="CmAchbvWxl7XxBxYjPVS-13">
          <mxGeometry relative="1" as="geometry" />
        </mxCell>
        <mxCell id="rELkXA1sIGeEUFRLZHnI-1" value="&lt;font style=&quot;font-size: 22px;&quot;&gt;Security group&lt;/font&gt;" style="fillColor=none;strokeColor=#DD3522;verticalAlign=top;fontStyle=0;fontColor=#DD3522;whiteSpace=wrap;html=1;" vertex="1" parent="CmAchbvWxl7XxBxYjPVS-3">
          <mxGeometry x="80" y="80" width="280" height="280" as="geometry" />
        </mxCell>
        <mxCell id="CmAchbvWxl7XxBxYjPVS-6" value="" style="sketch=0;points=[[0,0,0],[0.25,0,0],[0.5,0,0],[0.75,0,0],[1,0,0],[0,1,0],[0.25,1,0],[0.5,1,0],[0.75,1,0],[1,1,0],[0,0.25,0],[0,0.5,0],[0,0.75,0],[1,0.25,0],[1,0.5,0],[1,0.75,0]];outlineConnect=0;fontColor=#232F3E;fillColor=#ED7100;strokeColor=#ffffff;dashed=0;verticalLabelPosition=bottom;verticalAlign=top;align=center;html=1;fontSize=12;fontStyle=0;aspect=fixed;shape=mxgraph.aws4.resourceIcon;resIcon=mxgraph.aws4.ec2;direction=south;" parent="CmAchbvWxl7XxBxYjPVS-3" vertex="1">
          <mxGeometry x="160" y="160" width="120" height="120" as="geometry" />
        </mxCell>
        <mxCell id="CmAchbvWxl7XxBxYjPVS-7" value="" style="sketch=0;points=[[0,0,0],[0.25,0,0],[0.5,0,0],[0.75,0,0],[1,0,0],[0,1,0],[0.25,1,0],[0.5,1,0],[0.75,1,0],[1,1,0],[0,0.25,0],[0,0.5,0],[0,0.75,0],[1,0.25,0],[1,0.5,0],[1,0.75,0]];outlineConnect=0;fontColor=#232F3E;fillColor=#7AA116;strokeColor=#ffffff;dashed=0;verticalLabelPosition=bottom;verticalAlign=top;align=center;html=1;fontSize=12;fontStyle=0;aspect=fixed;shape=mxgraph.aws4.resourceIcon;resIcon=mxgraph.aws4.elastic_block_store;" parent="CmAchbvWxl7XxBxYjPVS-3" vertex="1">
          <mxGeometry x="440" y="160" width="120" height="120" as="geometry" />
        </mxCell>
        <mxCell id="CmAchbvWxl7XxBxYjPVS-10" value="" style="endArrow=classic;startArrow=classic;html=1;rounded=0;fontSize=12;startSize=11;endSize=11;curved=1;entryX=0.5;entryY=0;entryDx=0;entryDy=0;entryPerimeter=0;strokeWidth=3;" parent="CmAchbvWxl7XxBxYjPVS-3" source="CmAchbvWxl7XxBxYjPVS-7" target="CmAchbvWxl7XxBxYjPVS-6" edge="1">
          <mxGeometry width="50" height="50" relative="1" as="geometry">
            <mxPoint x="290" y="300" as="sourcePoint" />
            <mxPoint x="340" y="250" as="targetPoint" />
          </mxGeometry>
        </mxCell>
        <mxCell id="CmAchbvWxl7XxBxYjPVS-14" value="" style="edgeStyle=none;curved=1;rounded=0;orthogonalLoop=1;jettySize=auto;html=1;fontSize=12;strokeWidth=3;" parent="CmAchbvWxl7XxBxYjPVS-3" source="CmAchbvWxl7XxBxYjPVS-13" target="CmAchbvWxl7XxBxYjPVS-6" edge="1">
          <mxGeometry relative="1" as="geometry" />
        </mxCell>
        <mxCell id="CmAchbvWxl7XxBxYjPVS-13" value="" style="sketch=0;points=[[0,0,0],[0.25,0,0],[0.5,0,0],[0.75,0,0],[1,0,0],[0,1,0],[0.25,1,0],[0.5,1,0],[0.75,1,0],[1,1,0],[0,0.25,0],[0,0.5,0],[0,0.75,0],[1,0.25,0],[1,0.5,0],[1,0.75,0]];outlineConnect=0;fontColor=#232F3E;fillColor=#ED7100;strokeColor=#ffffff;dashed=0;verticalLabelPosition=bottom;verticalAlign=top;align=center;html=1;fontSize=12;fontStyle=0;aspect=fixed;shape=mxgraph.aws4.resourceIcon;resIcon=mxgraph.aws4.lambda;" parent="CmAchbvWxl7XxBxYjPVS-3" vertex="1">
          <mxGeometry x="160" y="440" width="120" height="120" as="geometry" />
        </mxCell>
        <mxCell id="CmAchbvWxl7XxBxYjPVS-15" value="&lt;font style=&quot;font-size: 22px;&quot;&gt;EBS&lt;/font&gt;" style="text;html=1;align=center;verticalAlign=middle;whiteSpace=wrap;rounded=0;" parent="CmAchbvWxl7XxBxYjPVS-3" vertex="1">
          <mxGeometry x="470" y="280" width="60" height="40" as="geometry" />
        </mxCell>
        <mxCell id="CmAchbvWxl7XxBxYjPVS-16" value="&lt;font style=&quot;font-size: 22px;&quot;&gt;EC2&lt;/font&gt;" style="text;html=1;align=center;verticalAlign=middle;whiteSpace=wrap;rounded=0;" parent="CmAchbvWxl7XxBxYjPVS-3" vertex="1">
          <mxGeometry x="160" y="280" width="60" height="40" as="geometry" />
        </mxCell>
        <mxCell id="CmAchbvWxl7XxBxYjPVS-17" value="&lt;font style=&quot;font-size: 22px;&quot;&gt;Lambda&lt;/font&gt;" style="text;html=1;align=center;verticalAlign=middle;whiteSpace=wrap;rounded=0;" parent="CmAchbvWxl7XxBxYjPVS-3" vertex="1">
          <mxGeometry x="190" y="560" width="60" height="40" as="geometry" />
        </mxCell>
        <mxCell id="rELkXA1sIGeEUFRLZHnI-7" value="" style="edgeStyle=orthogonalEdgeStyle;rounded=0;orthogonalLoop=1;jettySize=auto;html=1;endSize=11;startSize=11;strokeWidth=3;" edge="1" parent="CmAchbvWxl7XxBxYjPVS-3" source="rELkXA1sIGeEUFRLZHnI-5" target="CmAchbvWxl7XxBxYjPVS-13">
          <mxGeometry relative="1" as="geometry" />
        </mxCell>
        <mxCell id="rELkXA1sIGeEUFRLZHnI-5" value="" style="sketch=0;points=[[0,0,0],[0.25,0,0],[0.5,0,0],[0.75,0,0],[1,0,0],[0,1,0],[0.25,1,0],[0.5,1,0],[0.75,1,0],[1,1,0],[0,0.25,0],[0,0.5,0],[0,0.75,0],[1,0.25,0],[1,0.5,0],[1,0.75,0]];points=[[0,0,0],[0.25,0,0],[0.5,0,0],[0.75,0,0],[1,0,0],[0,1,0],[0.25,1,0],[0.5,1,0],[0.75,1,0],[1,1,0],[0,0.25,0],[0,0.5,0],[0,0.75,0],[1,0.25,0],[1,0.5,0],[1,0.75,0]];outlineConnect=0;fontColor=#232F3E;fillColor=#E7157B;strokeColor=#ffffff;dashed=0;verticalLabelPosition=bottom;verticalAlign=top;align=center;html=1;fontSize=12;fontStyle=0;aspect=fixed;shape=mxgraph.aws4.resourceIcon;resIcon=mxgraph.aws4.cloudwatch_2;" vertex="1" parent="CmAchbvWxl7XxBxYjPVS-3">
          <mxGeometry x="360" y="440" width="120" height="120" as="geometry" />
        </mxCell>
        <mxCell id="rELkXA1sIGeEUFRLZHnI-6" value="&lt;font style=&quot;font-size: 22px;&quot;&gt;CloudWatch&lt;/font&gt;" style="text;html=1;align=left;verticalAlign=middle;whiteSpace=wrap;rounded=0;" vertex="1" parent="CmAchbvWxl7XxBxYjPVS-3">
          <mxGeometry x="360" y="560" width="60" height="40" as="geometry" />
        </mxCell>
        <mxCell id="rELkXA1sIGeEUFRLZHnI-10" value="&lt;font style=&quot;font-size: 22px;&quot;&gt;Runs every 5 min&lt;/font&gt;" style="text;html=1;align=center;verticalAlign=middle;whiteSpace=wrap;rounded=0;" vertex="1" parent="CmAchbvWxl7XxBxYjPVS-3">
          <mxGeometry x="330" y="400" width="200" height="30" as="geometry" />
        </mxCell>
        <mxCell id="CmAchbvWxl7XxBxYjPVS-25" value="" style="endArrow=none;dashed=1;html=1;rounded=0;fontSize=12;startSize=8;endSize=8;curved=1;exitX=0.5;exitY=1;exitDx=0;exitDy=0;exitPerimeter=0;" parent="1" source="CmAchbvWxl7XxBxYjPVS-6" target="CmAchbvWxl7XxBxYjPVS-24" edge="1">
          <mxGeometry width="50" height="50" relative="1" as="geometry">
            <mxPoint y="220" as="sourcePoint" />
            <mxPoint x="-440" y="220" as="targetPoint" />
          </mxGeometry>
        </mxCell>
        <mxCell id="CmAchbvWxl7XxBxYjPVS-24" value="&lt;font style=&quot;font-size: 22px;&quot;&gt;User&lt;/font&gt;" style="html=1;verticalLabelPosition=bottom;align=center;labelBackgroundColor=#ffffff;verticalAlign=top;strokeWidth=2;strokeColor=#0080F0;shadow=0;dashed=0;shape=mxgraph.ios7.icons.user;" parent="1" vertex="1">
          <mxGeometry x="-440" y="-80" width="120" height="120" as="geometry" />
        </mxCell>
        <mxCell id="rELkXA1sIGeEUFRLZHnI-2" value="&lt;font style=&quot;font-size: 22px;&quot;&gt;User&lt;/font&gt;" style="html=1;verticalLabelPosition=bottom;align=center;labelBackgroundColor=#ffffff;verticalAlign=top;strokeWidth=2;strokeColor=#0080F0;shadow=0;dashed=0;shape=mxgraph.ios7.icons.user;" vertex="1" parent="1">
          <mxGeometry x="-440" y="120" width="120" height="120" as="geometry" />
        </mxCell>
        <mxCell id="rELkXA1sIGeEUFRLZHnI-4" value="" style="endArrow=none;dashed=1;html=1;rounded=0;fontSize=12;startSize=8;endSize=8;curved=1;entryX=1.008;entryY=0.545;entryDx=0;entryDy=0;entryPerimeter=0;" edge="1" parent="1" source="CmAchbvWxl7XxBxYjPVS-6" target="rELkXA1sIGeEUFRLZHnI-2">
          <mxGeometry width="50" height="50" relative="1" as="geometry">
            <mxPoint x="90" y="110" as="sourcePoint" />
            <mxPoint x="-310" y="6" as="targetPoint" />
          </mxGeometry>
        </mxCell>
      </root>
    </mxGraphModel>
  </diagram>
</mxfile>
